HIERARCHY
ROOT Hips
{
	OFFSET 0.000000 0.000000 0.000000
	CHANNELS 6 Xposition Yposition Zposition Zrotation Yrotation Xrotation 
	JOINT LHipJoint
	{
		OFFSET 0.000000 0.000000 0.000000
		CHANNELS 3 Zrotation Yrotation Xrotation
		JOINT LeftUpLeg
		{
			OFFSET 1.363060 -1.794630 0.839290
			CHANNELS 3 Zrotation Yrotation Xrotation
			JOINT LeftLeg
			{
				OFFSET 2.448110 -6.726130 0.000000
				CHANNELS 3 Zrotation Yrotation Xrotation
				JOINT LeftFoot
				{
					OFFSET 2.562200 -7.039590 0.000000
					CHANNELS 3 Zrotation Yrotation Xrotation
					JOINT LeftToeBase
					{
						OFFSET 0.157640 -0.433110 2.322550
						CHANNELS 3 Zrotation Yrotation Xrotation
						End Site
						{
							OFFSET 0.000000 0.000000 0.000000
						}
					}
				}
			}
		}
	}
	JOINT RHipJoint
	{
		OFFSET 0.000000 0.000000 0.000000
		CHANNELS 3 Zrotation Yrotation Xrotation
		JOINT RightUpLeg
		{
			OFFSET -1.305520 -1.794630 0.839290
			CHANNELS 3 Zrotation Yrotation Xrotation
			JOINT RightLeg
			{
				OFFSET -2.542530 -6.985550 0.000000
				CHANNELS 3 Zrotation Yrotation Xrotation
				JOINT RightFoot
				{
					OFFSET -2.568260 -7.056230 0.000000
					CHANNELS 3 Zrotation Yrotation Xrotation
					JOINT RightToeBase
					{
						OFFSET -0.164730 -0.452590 2.363150
						CHANNELS 3 Zrotation Yrotation Xrotation
						End Site
						{
							OFFSET 0.000000 0.000000 0.000000
						}
					}
				}
			}
		}
	}
	JOINT LowerBack
	{
		OFFSET 0.000000 0.000000 0.000000
		CHANNELS 3 Zrotation Yrotation Xrotation
		JOINT Spine
		{
			OFFSET 0.028270 2.035590 -0.193380
			CHANNELS 3 Zrotation Yrotation Xrotation
			JOINT Spine1
			{
				OFFSET 0.056720 2.048850 -0.042750
				CHANNELS 3 Zrotation Yrotation Xrotation
				JOINT Neck
				{
					OFFSET 0.000000 0.000000 0.000000
					CHANNELS 3 Zrotation Yrotation Xrotation
					JOINT Neck1
					{
						OFFSET -0.054170 1.746240 0.172020
						CHANNELS 3 Zrotation Yrotation Xrotation
						JOINT Head
						{
							OFFSET 0.104070 1.761360 -0.123970
							CHANNELS 3 Zrotation Yrotation Xrotation
							End Site
							{
								OFFSET 0.000000 0.000000 0.000000
							}
						}
					}
				}
				JOINT LeftShoulder
				{
					OFFSET 0.000000 0.000000 0.000000
					CHANNELS 3 Zrotation Yrotation Xrotation
					JOINT LeftArm
					{
						OFFSET 3.362410 1.200890 -0.311210
						CHANNELS 3 Zrotation Yrotation Xrotation
						JOINT LeftForeArm
						{
							OFFSET 4.983000 -0.000000 -0.000000
							CHANNELS 3 Zrotation Yrotation Xrotation
							JOINT LeftHand
							{
								OFFSET 3.483560 -0.000000 -0.000000
								CHANNELS 3 Zrotation Yrotation Xrotation
								JOINT LeftFingerBase
								{
									OFFSET 0.000000 0.000000 0.000000
									CHANNELS 3 Zrotation Yrotation Xrotation
									JOINT LeftHandIndex1
									{
										OFFSET 0.715260 -0.000000 -0.000000
										CHANNELS 3 Zrotation Yrotation Xrotation
										End Site
										{
											OFFSET 0.000000 0.000000 0.000000
										}
									}
								}
								JOINT LThumb
								{
									OFFSET 0.000000 0.000000 0.000000
									CHANNELS 3 Zrotation Yrotation Xrotation
									End Site
									{
										OFFSET 0.000000 0.000000 0.000000
									}
								}
							}
						}
					}
				}
				JOINT RightShoulder
				{
					OFFSET 0.000000 0.000000 0.000000
					CHANNELS 3 Zrotation Yrotation Xrotation
					JOINT RightArm
					{
						OFFSET -3.136600 1.374050 -0.404650
						CHANNELS 3 Zrotation Yrotation Xrotation
						JOINT RightForeArm
						{
							OFFSET -5.241900 -0.000000 -0.000000
							CHANNELS 3 Zrotation Yrotation Xrotation
							JOINT RightHand
							{
								OFFSET -3.444170 -0.000000 -0.000000
								CHANNELS 3 Zrotation Yrotation Xrotation
								JOINT RightFingerBase
								{
									OFFSET 0.000000 0.000000 0.000000
									CHANNELS 3 Zrotation Yrotation Xrotation
									JOINT RightHandIndex1
									{
										OFFSET -0.622530 -0.000000 -0.000000
										CHANNELS 3 Zrotation Yrotation Xrotation
										End Site
										{
											OFFSET 0.000000 0.000000 0.000000
										}
									}
								}
								JOINT RThumb
								{
									OFFSET 0.000000 0.000000 0.000000
									CHANNELS 3 Zrotation Yrotation Xrotation
									End Site
									{
										OFFSET 0.000000 0.000000 0.000000
									}
								}
							}
						}
					}
				}
			}
		}
	}
}
MOTION
Frames: 4
Frame Time: 0.008333
-0.379826 17.781971 -27.628284 -3.062356 6.238390 3.616566 -6.468998 -2.097183 0.864438 -7.103433 -3.480934 -12.876553 1.258383 10.676761 28.597197 -3.551211 13.657139 -3.327053 0.121100 -2.243600 -6.179300 5.113911 2.053815 0.330353 14.456253 -0.616354 -12.243029 -2.047270 -11.153225 30.155145 6.002426 -22.825360 -12.027928 -0.017600 0.857300 -2.356200 -0.267333 -0.085777 -0.062104 2.284496 -0.237006 -2.362483 2.562109 -0.208842 -0.199986 4.297277 -8.151685 -21.766609 -0.115134 -12.287490 17.689888 -5.391500 -4.848600 11.459300 3.637729 -0.827679 -0.135950 -91.303848 0.171408 26.238435 13.027009 -21.462844 -2.346997 0.145517 0.291617 -4.510066 11.507123 1.225178 0.188600 -7.125000 0.000000 0.000000 -12.054400 30.806300 4.264100 -3.075844 1.884720 0.007199 88.200850 1.682710 16.088769 -12.523200 21.425098 -2.437823 0.168232 -0.415741 -4.957439 -14.531886 -5.480752 1.315500 7.125000 0.000000 0.000000 9.952800 -35.041300 2.465100 
-0.373512 17.794799 -27.625478 -3.045645 6.355721 3.583029 -6.461652 -2.110283 0.829552 -7.124002 -3.531951 -13.062233 1.292364 10.728322 28.761662 -3.538739 13.620745 -3.226418 0.127200 -2.299200 -6.333200 5.123587 2.052244 0.354921 14.432710 -0.731262 -12.113574 -2.007534 -11.083854 29.929529 6.029996 -22.900495 -11.958019 -0.016700 0.835000 -2.294900 -0.103420 -0.134495 -0.046942 2.148552 -0.297856 -2.356097 2.252312 -0.240256 -0.184717 4.440297 -8.224003 -21.788247 -0.111176 -12.436693 17.862889 -5.433200 -4.878600 11.520000 3.629550 -0.811709 -0.137475 -91.011649 0.249364 26.313536 13.065931 -21.507394 -2.358602 0.143479 0.294564 -4.401568 11.483583 1.403543 0.223300 -7.125000 0.000000 0.000000 -12.093900 30.980400 4.227000 -3.095871 1.901155 0.007693 88.523983 1.656449 15.815660 -12.378930 21.242951 -2.392694 0.155088 -0.419022 -4.356613 -14.809051 -4.811071 1.162600 7.125000 0.000000 0.000000 9.640000 -34.370500 2.545000 
-0.363591 17.792694 -27.622572 -3.058633 6.404294 3.578565 -6.453281 -2.112334 0.827408 -7.146942 -3.467986 -13.102104 1.300705 10.743186 28.812457 -3.503458 13.515549 -3.227552 0.126300 -2.290600 -6.309400 5.127085 2.055373 0.359138 14.409606 -0.890770 -12.158095 -2.007890 -11.073050 29.883999 6.071983 -23.005573 -11.748884 -0.021400 0.944000 -2.594800 0.128208 -0.158601 -0.097149 2.016989 -0.326440 -2.352529 1.918796 -0.257321 -0.150659 4.431513 -8.330389 -21.665276 -0.001248 -12.586488 17.982824 -5.396200 -4.915700 11.545900 3.620720 -0.793676 -0.139102 -90.747346 0.311029 26.377207 13.074463 -21.508478 -2.359573 0.141488 0.295350 -4.412439 11.419113 1.482068 0.237500 -7.125000 0.000000 0.000000 -12.153200 31.056300 4.225900 -3.115206 1.917213 0.009571 88.807478 1.626744 15.652836 -12.374044 21.253546 -2.394845 0.161493 -0.419799 -4.416266 -14.686060 -5.350384 1.294700 7.125000 0.000000 0.000000 9.809900 -34.913000 2.459800 
-0.356275 17.791893 -27.625578 -3.092848 6.397789 3.581411 -6.447176 -2.112090 0.824416 -7.143403 -3.487340 -13.123164 1.311785 10.759671 28.869015 -3.502996 13.512346 -3.270584 0.124600 -2.275200 -6.266900 5.135736 2.054237 0.363478 14.415395 -0.820210 -12.122598 -1.995020 -11.054038 29.822482 6.080352 -23.032870 -11.766436 -0.019900 0.910300 -2.502200 0.424585 -0.175627 -0.090361 1.854163 -0.344674 -2.429108 1.485303 -0.262321 -0.262972 4.767564 -8.148173 -21.440557 0.011171 -12.451483 17.945473 -5.417400 -4.827100 11.476500 3.620732 -0.803505 -0.136647 -90.378225 0.566649 26.552064 13.110966 -21.543361 -2.368503 0.139742 0.292141 -4.644370 11.298868 1.318652 0.203500 -7.125000 0.000000 0.000000 -12.225500 30.894700 4.300600 -3.129239 1.917748 0.007034 89.196198 1.421153 15.430149 -12.241011 21.088037 -2.353699 0.154382 -0.422163 -3.970823 -14.806866 -5.102698 1.239400 7.125000 0.000000 0.000000 9.679700 -34.665100 2.485500 
